mtllib prt0001.mtl

v  -102.113274 204.226547 -150.000000
v  -102.113274 204.226547 -150.000000
v  -102.113274 204.226547 -150.000000
v  -102.113274 0.000000 -150.000000
v  -102.113274 0.000000 -150.000000
v  -102.113274 0.000000 -150.000000
v  102.113274 0.000000 -150.000000
v  102.113274 0.000000 -150.000000
v  102.113274 0.000000 -150.000000
v  102.113274 204.226547 -150.000000
v  102.113274 204.226547 -150.000000
v  102.113274 204.226547 -150.000000
v  102.113274 204.226547 150.000000
v  102.113274 204.226547 150.000000
v  102.113274 204.226547 150.000000
v  102.113274 0.000000 150.000000
v  102.113274 0.000000 150.000000
v  102.113274 0.000000 150.000000
v  -102.113274 0.000000 150.000000
v  -102.113274 0.000000 150.000000
v  -102.113274 0.000000 150.000000
v  -102.113274 204.226547 150.000000
v  -102.113274 204.226547 150.000000
v  -102.113274 204.226547 150.000000
v  143.030652 204.226547 -165.000000
v  143.030652 204.226547 -165.000000
v  143.030652 204.226547 -165.000000
v  0.000000 357.828184 -165.000000
v  0.000000 357.828184 -165.000000
v  0.000000 357.828184 -165.000000
v  -143.030652 204.226547 -165.000000
v  -143.030652 204.226547 -165.000000
v  -143.030652 204.226547 -165.000000
v  -143.030652 204.226547 165.000000
v  -143.030652 204.226547 165.000000
v  -143.030652 204.226547 165.000000
v  0.000000 357.828184 165.000000
v  0.000000 357.828184 165.000000
v  0.000000 357.828184 165.000000
v  143.030652 204.226547 165.000000
v  143.030652 204.226547 165.000000
v  143.030652 204.226547 165.000000

vt  0.570739 0.045455 0.000000
vt  0.570739 0.045455 0.000000
vt  0.570739 0.045455 0.000000
vt  0.000000 0.045455 0.000000
vt  0.000000 0.045455 0.000000
vt  0.000000 0.045455 0.000000
vt  0.000000 0.045455 0.000000
vt  0.000000 0.045455 0.000000
vt  0.000000 0.045455 0.000000
vt  0.570739 0.045455 0.000000
vt  0.570739 0.045455 0.000000
vt  0.570739 0.045455 0.000000
vt  0.570739 0.954545 0.000000
vt  0.570739 0.954545 0.000000
vt  0.570739 0.954545 0.000000
vt  0.000000 0.954545 0.000000
vt  0.000000 0.954545 0.000000
vt  0.000000 0.954545 0.000000
vt  0.000000 0.954545 0.000000
vt  0.000000 0.954545 0.000000
vt  0.000000 0.954545 0.000000
vt  0.570739 0.954545 0.000000
vt  0.570739 0.954545 0.000000
vt  0.570739 0.954545 0.000000
vt  0.570739 0.000000 0.000000
vt  0.570739 0.000000 0.000000
vt  0.570739 0.000000 0.000000
vt  1.000000 0.000000 0.000000
vt  1.000000 0.000000 0.000000
vt  1.000000 0.000000 0.000000
vt  0.570739 0.000000 0.000000
vt  0.570739 0.000000 0.000000
vt  0.570739 0.000000 0.000000
vt  0.570739 1.000000 0.000000
vt  0.570739 1.000000 0.000000
vt  0.570739 1.000000 0.000000
vt  1.000000 1.000000 0.000000
vt  1.000000 1.000000 0.000000
vt  1.000000 1.000000 0.000000
vt  0.570739 1.000000 0.000000
vt  0.570739 1.000000 0.000000
vt  0.570739 1.000000 0.000000

vn  0.000000 0.000000 -1.000000
vn  -1.000000 0.000000 0.000000
vn  0.000000 -1.000000 0.000000
vn  0.000000 0.000000 -1.000000
vn  0.000000 -1.000000 0.000000
vn  -1.000000 0.000000 0.000000
vn  0.000000 0.000000 -1.000000
vn  0.000000 -1.000000 0.000000
vn  1.000000 0.000000 0.000000
vn  0.000000 0.000000 -1.000000
vn  1.000000 0.000000 0.000000
vn  0.000000 -1.000000 0.000000
vn  0.000000 0.000000 1.000000
vn  1.000000 0.000000 0.000000
vn  0.000000 -1.000000 0.000000
vn  0.000000 0.000000 1.000000
vn  0.000000 -1.000000 0.000000
vn  1.000000 0.000000 0.000000
vn  0.000000 0.000000 1.000000
vn  0.000000 -1.000000 0.000000
vn  -1.000000 0.000000 0.000000
vn  0.000000 0.000000 1.000000
vn  -1.000000 0.000000 0.000000
vn  0.000000 -1.000000 0.000000
vn  0.000000 0.000000 -1.000000
vn  0.000000 -1.000000 0.000000
vn  0.731841 0.681475 0.000000
vn  0.000000 0.000000 -1.000000
vn  0.731841 0.681475 0.000000
vn  -0.731841 0.681475 0.000000
vn  0.000000 0.000000 -1.000000
vn  0.000000 -1.000000 0.000000
vn  -0.731841 0.681475 0.000000
vn  0.000000 0.000000 1.000000
vn  0.000000 -1.000000 0.000000
vn  -0.731841 0.681475 0.000000
vn  0.000000 0.000000 1.000000
vn  0.731841 0.681475 0.000000
vn  -0.731841 0.681475 0.000000
vn  0.000000 0.000000 1.000000
vn  0.000000 -1.000000 0.000000
vn  0.731841 0.681475 0.000000


g 0
g 1
usemtl DEFAULT_MTL
f 7/7/7  4/4/4  1/1/1
f 21/21/21  2/2/2  6/6/6
f 10/10/10  7/7/7  1/1/1
f 32/32/32  12/12/12  3/3/3
f 23/23/23  2/2/2  21/21/21
f 32/32/32  3/3/3  24/24/24
f 17/17/17  5/5/5  8/8/8
f 20/20/20  5/5/5  17/17/17
f 14/14/14  9/9/9  11/11/11
f 18/18/18  9/9/9  14/14/14
f 41/41/41  15/15/15  12/12/12
f 32/32/32  26/26/26  12/12/12
f 41/41/41  12/12/12  26/26/26
f 19/19/19  16/16/16  13/13/13
f 22/22/22  19/19/19  13/13/13
f 41/41/41  24/24/24  15/15/15
f 35/35/35  32/32/32  24/24/24
f 41/41/41  35/35/35  24/24/24
f 31/31/31  28/28/28  25/25/25
f 38/38/38  27/27/27  29/29/29
f 42/42/42  27/27/27  38/38/38
f 36/36/36  30/30/30  33/33/33
f 39/39/39  30/30/30  36/36/36
f 40/40/40  37/37/37  34/34/34
